<svg xmlns="http://www.w3.org/2000/svg" width="24" height="49" viewBox="0 0 24 49" fill="none"><path d="M0.766308 26.0974H5.97429V48.2097C5.97429 48.6463 6.31729 49 6.7406 49H15.5709C15.9942 49 16.3372 48.6463 16.3372 48.2097V26.2016H22.3242C22.7135 26.2016 23.041 25.9003 23.0855 25.5015L23.9948 17.3609C24.0198 17.1369 23.951 16.9126 23.8057 16.7446C23.6602 16.5764 23.4521 16.4801 23.2337 16.4801H16.3375V11.3772C16.3375 9.83888 17.1406 9.05884 18.7247 9.05884C18.9505 9.05884 23.2337 9.05884 23.2337 9.05884C23.657 9.05884 24 8.70493 24 8.26851V0.796171C24 0.359597 23.657 0.00584839 23.2337 0.00584839H17.0197C16.9759 0.00363548 16.8785 0 16.7351 0C15.6569 0 11.9092 0.218287 8.94879 3.02709C5.66869 6.1397 6.12464 9.86655 6.23361 10.5127V16.48H0.766308C0.342999 16.48 0 16.8337 0 17.2703V25.3069C0 25.7435 0.342999 26.0974 0.766308 26.0974Z" fill="white"></path></svg>