<svg xmlns="http://www.w3.org/2000/svg" width="9" height="17" viewBox="0 0 9 17" fill="none"><path d="M0.25799 8.60682H2.01134V15.8994C2.01134 16.0433 2.12682 16.16 2.26933 16.16H5.24221C5.38472 16.16 5.5002 16.0433 5.5002 15.8994V8.64117H7.51583C7.64689 8.64117 7.75715 8.54181 7.77211 8.41029L8.07825 5.72554C8.08666 5.65167 8.06349 5.5777 8.01457 5.52229C7.96561 5.46682 7.89554 5.43508 7.82201 5.43508H5.5003V3.75214C5.5003 3.24482 5.77068 2.98757 6.30399 2.98757C6.38 2.98757 7.82201 2.98757 7.82201 2.98757C7.96452 2.98757 8.08 2.87085 8.08 2.72692V0.262574C8.08 0.118594 7.96452 0.00192877 7.82201 0.00192877H5.72997C5.71521 0.00119897 5.68244 0 5.63415 0C5.27116 0 4.00943 0.0719901 3.01276 0.998323C1.90846 2.02485 2.06196 3.25395 2.09865 3.46705V5.43502H0.25799C0.115476 5.43502 0 5.55169 0 5.69567V8.34612C0 8.4901 0.115476 8.60682 0.25799 8.60682Z" fill="black"></path></svg>