<svg xmlns="http://www.w3.org/2000/svg" width="260" height="260" viewBox="0 0 260 260" fill="none"><path d="M258.5 130C258.5 200.969 200.969 258.5 130 258.5C59.0314 258.5 1.5 200.969 1.5 130C1.5 59.0314 59.0314 1.5 130 1.5C200.969 1.5 258.5 59.0314 258.5 130Z" stroke="white" stroke-width="3"></path><path d="M76.7999 77.3687H102.856V103.424H76.7999V77.3687Z" stroke="white" stroke-width="3"></path><path d="M76.8 116.965H102.856V143.021H76.8V116.965Z" stroke="white" stroke-width="3"></path><path d="M117.256 116.965H143.312V143.021H117.256V116.965Z" stroke="white" stroke-width="3"></path><path d="M117.256 156.561H143.312V182.617H117.256V156.561Z" stroke="white" stroke-width="3"></path><path d="M76.8 156.561H102.856V182.617H76.8V156.561Z" stroke="white" stroke-width="3"></path><path d="M117.256 77.3687H143.312V103.424H117.256V77.3687Z" stroke="white" stroke-width="3"></path><path d="M157.115 116.965H183.171V143.021H157.115V116.965Z" stroke="white" stroke-width="3"></path><path d="M157.115 156.561H183.171V182.617H157.115V156.561Z" stroke="white" stroke-width="3"></path><path d="M157.115 77.3687H183.171V103.424H157.115V77.3687Z" stroke="white" stroke-width="3"></path></svg>