<svg xmlns="http://www.w3.org/2000/svg" width="17" height="17" viewBox="0 0 17 17" fill="none"><path d="M12.7933 0H3.36667C1.50827 0 0 1.50827 0 3.36667V12.7933C0 14.6517 1.50827 16.16 3.36667 16.16H12.7933C14.6517 16.16 16.16 14.6517 16.16 12.7933V3.36667C16.16 1.50827 14.6517 0 12.7933 0ZM14.8133 12.7933C14.8133 13.9043 13.9043 14.8133 12.7933 14.8133H3.36667C2.25567 14.8133 1.34667 13.9043 1.34667 12.7933V3.36667C1.34667 2.25567 2.25567 1.34667 3.36667 1.34667H12.7933C13.9043 1.34667 14.8133 2.25567 14.8133 3.36667V12.7933Z" fill="black"></path><path d="M8.08003 3.3667C5.48097 3.3667 3.3667 5.48097 3.3667 8.08003C3.3667 10.6791 5.48097 12.7934 8.08003 12.7934C10.6791 12.7934 12.7934 10.6791 12.7934 8.08003C12.7934 5.48097 10.6791 3.3667 8.08003 3.3667ZM8.08003 11.4467C6.22163 11.4467 4.71337 9.93843 4.71337 8.08003C4.71337 6.22163 6.22163 4.71337 8.08003 4.71337C9.93843 4.71337 11.4467 6.22163 11.4467 8.08003C11.4467 9.93843 9.93843 11.4467 8.08003 11.4467Z" fill="black"></path><path d="M12.7934 4.04003C13.1653 4.04003 13.4667 3.73856 13.4667 3.36669C13.4667 2.99482 13.1653 2.69336 12.7934 2.69336C12.4215 2.69336 12.1201 2.99482 12.1201 3.36669C12.1201 3.73856 12.4215 4.04003 12.7934 4.04003Z" fill="black"></path></svg>