<svg xmlns="http://www.w3.org/2000/svg" width="49" height="49" viewBox="0 0 49 49" fill="none"><path d="M38.5946 0H10.1565C4.5501 0 0 4.5501 0 10.1565V38.5946C0 44.201 4.5501 48.7511 10.1565 48.7511H38.5946C44.201 48.7511 48.7511 44.201 48.7511 38.5946V10.1565C48.7511 4.5501 44.201 0 38.5946 0ZM44.6885 38.5946C44.6885 41.9462 41.9462 44.6885 38.5946 44.6885H10.1565C6.80484 44.6885 4.06259 41.9462 4.06259 38.5946V10.1565C4.06259 6.80484 6.80484 4.06259 10.1565 4.06259H38.5946C41.9462 4.06259 44.6885 6.80484 44.6885 10.1565V38.5946Z" fill="white"></path><path d="M24.3756 10.1567C16.5348 10.1567 10.1566 16.535 10.1566 24.3758C10.1566 32.2166 16.5348 38.5949 24.3756 38.5949C32.2164 38.5949 38.5947 32.2166 38.5947 24.3758C38.5947 16.535 32.2164 10.1567 24.3756 10.1567ZM24.3756 34.5323C18.7692 34.5323 14.2191 29.9822 14.2191 24.3758C14.2191 18.7694 18.7692 14.2193 24.3756 14.2193C29.982 14.2193 34.5321 18.7694 34.5321 24.3758C34.5321 29.9822 29.982 34.5323 24.3756 34.5323Z" fill="white"></path><path d="M38.5948 12.1881C39.7166 12.1881 40.6261 11.2786 40.6261 10.1568C40.6261 9.03493 39.7166 8.12549 38.5948 8.12549C37.4729 8.12549 36.5635 9.03493 36.5635 10.1568C36.5635 11.2786 37.4729 12.1881 38.5948 12.1881Z" fill="white"></path></svg>