<svg xmlns="http://www.w3.org/2000/svg" width="111" height="111" viewBox="0 0 111 111" fill="none"><circle cx="55.4075" cy="55.4075" r="54.4075" stroke="black" stroke-width="2"></circle><path d="M31.6074 48.7812H34.0879L37.7402 59.2207L41.3926 48.7812H43.873L38.7363 63H36.7441L31.6074 48.7812ZM30.2695 48.7812H32.7402L33.1895 58.957V63H30.2695V48.7812ZM42.7402 48.7812H45.2207V63H42.291V58.957L42.7402 48.7812ZM52.4766 63.1953C51.6562 63.1953 50.9206 63.0651 50.2695 62.8047C49.6185 62.5378 49.0651 62.1699 48.6094 61.7012C48.1602 61.2324 47.8151 60.6888 47.5742 60.0703C47.3333 59.4453 47.2129 58.7812 47.2129 58.0781V57.6875C47.2129 56.8867 47.3268 56.1543 47.5547 55.4902C47.7826 54.8262 48.1081 54.25 48.5312 53.7617C48.9609 53.2734 49.4818 52.8991 50.0938 52.6387C50.7057 52.3717 51.3958 52.2383 52.1641 52.2383C52.9128 52.2383 53.5768 52.362 54.1562 52.6094C54.7357 52.8568 55.2207 53.2083 55.6113 53.6641C56.0085 54.1198 56.3079 54.6667 56.5098 55.3047C56.7116 55.9362 56.8125 56.6393 56.8125 57.4141V58.5859H48.4141V56.7109H54.0488V56.4961C54.0488 56.1055 53.9772 55.7572 53.834 55.4512C53.6973 55.1387 53.4889 54.8913 53.209 54.709C52.929 54.5267 52.571 54.4355 52.1348 54.4355C51.7637 54.4355 51.4447 54.5169 51.1777 54.6797C50.9108 54.8424 50.6927 55.0703 50.5234 55.3633C50.3607 55.6562 50.237 56.0013 50.1523 56.3984C50.0742 56.7891 50.0352 57.2188 50.0352 57.6875V58.0781C50.0352 58.5013 50.0938 58.8919 50.2109 59.25C50.3346 59.6081 50.5072 59.9173 50.7285 60.1777C50.9564 60.4382 51.2298 60.64 51.5488 60.7832C51.8743 60.9264 52.2422 60.998 52.6523 60.998C53.1602 60.998 53.6322 60.9004 54.0684 60.7051C54.5111 60.5033 54.8919 60.2005 55.2109 59.7969L56.5781 61.2812C56.3568 61.6003 56.054 61.9062 55.6699 62.1992C55.2923 62.4922 54.8366 62.7331 54.3027 62.9219C53.7689 63.1042 53.1602 63.1953 52.4766 63.1953ZM61.168 54.6895V63H58.3555V52.4336H60.9922L61.168 54.6895ZM60.7578 57.3457H59.9961C59.9961 56.5645 60.097 55.8613 60.2988 55.2363C60.5007 54.6048 60.7839 54.0677 61.1484 53.625C61.513 53.1758 61.946 52.834 62.4473 52.5996C62.9551 52.3587 63.5215 52.2383 64.1465 52.2383C64.6413 52.2383 65.0938 52.3099 65.5039 52.4531C65.9141 52.5964 66.2656 52.8242 66.5586 53.1367C66.8581 53.4492 67.0859 53.8626 67.2422 54.377C67.4049 54.8913 67.4863 55.5195 67.4863 56.2617V63H64.6543V56.252C64.6543 55.7832 64.5892 55.4186 64.459 55.1582C64.3288 54.8978 64.1367 54.7155 63.8828 54.6113C63.6354 54.5007 63.3294 54.4453 62.9648 54.4453C62.5872 54.4453 62.2585 54.5202 61.9785 54.6699C61.7051 54.8197 61.4772 55.028 61.2949 55.2949C61.1191 55.5553 60.9857 55.8613 60.8945 56.2129C60.8034 56.5645 60.7578 56.9421 60.7578 57.3457ZM75.875 60.4707V52.4336H78.6875V63H76.041L75.875 60.4707ZM76.1875 58.3027L77.0176 58.2832C77.0176 58.9863 76.9362 59.6406 76.7734 60.2461C76.6107 60.8451 76.3665 61.3659 76.041 61.8086C75.7155 62.2448 75.3053 62.5866 74.8105 62.834C74.3158 63.0749 73.7331 63.1953 73.0625 63.1953C72.5482 63.1953 72.0729 63.1237 71.6367 62.9805C71.207 62.8307 70.8359 62.5996 70.5234 62.2871C70.2174 61.9681 69.9766 61.5612 69.8008 61.0664C69.6315 60.5651 69.5469 59.9629 69.5469 59.2598V52.4336H72.3594V59.2793C72.3594 59.5918 72.3952 59.8555 72.4668 60.0703C72.5449 60.2852 72.6523 60.4609 72.7891 60.5977C72.9258 60.7344 73.0853 60.832 73.2676 60.8906C73.4564 60.9492 73.6647 60.9785 73.8926 60.9785C74.472 60.9785 74.9277 60.8613 75.2598 60.627C75.5983 60.3926 75.8359 60.0736 75.9727 59.6699C76.1159 59.2598 76.1875 58.804 76.1875 58.3027Z" fill="black"></path></svg>