<svg xmlns="http://www.w3.org/2000/svg" width="169" height="169" viewBox="0 0 169 169" fill="none"><circle cx="84.5" cy="84.5" r="83.5" fill="white" stroke="black" stroke-width="2"></circle><path d="M31.1853 71.0863V96.776H24.5239V71.0863H20V65H35.5771V71.0863H31.1853Z" fill="black"></path><path d="M48.3636 96.776V82.5126L43.5133 84.6113V96.776H37.1394V65.0078H43.5133V78.696L48.3636 76.5973V65.0078H54.7375V96.776H48.3636Z" fill="black"></path><path d="M72.2811 71.0008H63.4898V78.9759H69.8637V84.9378H63.4898V87.1142C63.4898 87.7438 63.5442 88.319 63.6531 88.8398C63.7619 89.3606 64.0495 89.8425 64.5159 90.2778C65.0367 90.7675 65.5808 91.0162 66.156 91.0162C66.7623 91.0162 67.4152 91.0162 68.1303 91.0162H72.2811V96.8538L65.5419 96.8926C64.3915 96.8926 63.3033 96.6672 62.2772 96.2164C61.2512 95.7655 60.3495 95.1515 59.5878 94.3897C58.8183 93.6202 58.2197 92.7263 57.7767 91.7003C57.3414 90.6742 57.116 89.586 57.116 88.4356V70.9697C57.116 70.1458 57.2714 69.3762 57.5901 68.6456C57.901 67.9227 58.3363 67.2853 58.8882 66.7567C59.4323 66.2204 60.0697 65.8084 60.8004 65.5053C61.5233 65.2021 62.3006 65.0544 63.1245 65.0544L72.2889 65.0933V71.0008H72.2811Z" fill="black"></path><path d="M90.9829 73.0607C90.8741 73.5815 90.8197 74.1567 90.8197 74.7863V90.8997H95.67V77.0094H101.997V96.7761L90.5321 96.8616C89.7082 96.8616 88.9309 96.7139 88.1924 96.4108C87.454 96.1076 86.8088 95.6879 86.2569 95.1593C85.7051 94.623 85.2698 93.9934 84.9433 93.2705C84.6169 92.5476 84.4536 91.7703 84.4536 90.9464V73.4805C84.4536 72.3301 84.6713 71.2418 85.1143 70.2158C85.5496 69.1898 86.1559 68.2881 86.9254 67.5263C87.695 66.7568 88.5888 66.1505 89.6149 65.6997C90.6409 65.2489 91.7291 65.0234 92.8795 65.0234H102.044V70.8998H94.5663V70.9387C94.0766 70.9076 93.5947 70.9231 93.1283 70.9776C92.6619 71.032 92.2422 71.2496 91.8535 71.6383C91.3794 72.058 91.0918 72.5399 90.9829 73.0607Z" fill="black"></path><path d="M110.835 96.8537H104.384V65.0388H116.012C116.836 65.0388 117.605 65.1865 118.336 65.4741C119.067 65.7617 119.696 66.1659 120.248 66.6867C120.8 67.2075 121.228 67.8138 121.546 68.5133C121.857 69.2129 122.02 69.9747 122.02 70.7908V74.4519C122.02 75.9288 121.686 77.2735 121.018 78.4783C120.349 79.6831 119.448 80.6703 118.328 81.4398L122.355 96.7682H115.53L111.954 82.9167H110.843V96.8537H110.835ZM115.647 70.8841H110.796V77.0481C111.395 77.1025 112.055 77.1181 112.771 77.087C113.486 77.0559 114.1 76.7994 114.621 76.3097C115.087 75.8744 115.375 75.3924 115.483 74.8717C115.592 74.3509 115.647 73.7757 115.647 73.146V70.8841Z" fill="black"></path><path d="M123.785 96.776V65.0078H130.159V96.776H123.785Z" fill="black"></path><path d="M141.904 65.0854C143.054 65.0854 144.142 65.3109 145.168 65.7617C146.195 66.2125 147.096 66.8266 147.858 67.5884C148.627 68.3579 149.226 69.2518 149.669 70.2778C150.104 71.3039 150.33 72.3921 150.33 73.5425V91.0084C150.33 91.8323 150.174 92.5941 149.856 93.2859C149.537 93.9854 149.109 94.5917 148.558 95.1125C148.006 95.6333 147.368 96.0375 146.645 96.3251C145.922 96.6127 145.145 96.7604 144.321 96.7604H132.732V65.1165L141.904 65.0854ZM141.088 70.8996C140.373 70.8608 139.72 70.8686 139.113 70.923V90.9384H143.964V74.8716C143.964 74.242 143.909 73.6668 143.8 73.146C143.692 72.6253 143.404 72.1433 142.938 71.708C142.409 71.2106 141.795 70.9463 141.088 70.8996Z" fill="black"></path><path d="M58.6548 103.026L61.6548 111.112L64.6548 103.026H67.7954L63.0845 113.807V120.089H60.2134V113.807L55.5024 103.026H58.6548ZM74.1118 105.37L69.9868 120.089H67.0103L72.4243 103.026H74.2759L74.1118 105.37ZM77.4048 120.089L73.2681 105.37L73.0688 103.026H74.9556L80.3931 120.089H77.4048ZM77.4751 113.749V116.139H69.5298V113.749H77.4751ZM87.8228 112.401H84.3423L84.3306 110.221H87.4126C87.8892 110.221 88.2954 110.128 88.6313 109.94C88.9673 109.753 89.2212 109.479 89.3931 109.12C89.5728 108.76 89.6626 108.327 89.6626 107.819C89.6626 107.257 89.5806 106.8 89.4165 106.448C89.2603 106.089 89.0181 105.827 88.6899 105.663C88.3618 105.499 87.9399 105.417 87.4243 105.417H85.186V120.089H82.3384V103.026H87.4243C88.2212 103.026 88.9321 103.116 89.5571 103.296C90.1899 103.475 90.7251 103.757 91.1626 104.139C91.6001 104.514 91.9321 104.995 92.1587 105.581C92.3931 106.159 92.5103 106.846 92.5103 107.643C92.5103 108.339 92.3618 108.979 92.0649 109.565C91.7681 110.143 91.3267 110.62 90.7407 110.995C90.1626 111.362 89.4438 111.581 88.5845 111.651L87.8228 112.401ZM87.7173 120.089H83.4048L84.7173 117.71H87.7173C88.2251 117.71 88.6431 117.6 88.9712 117.382C89.2993 117.163 89.5454 116.858 89.7095 116.468C89.8735 116.077 89.9556 115.62 89.9556 115.096C89.9556 114.55 89.8853 114.073 89.7446 113.667C89.604 113.26 89.3774 112.948 89.0649 112.729C88.7524 112.51 88.3384 112.401 87.8228 112.401H84.9517L84.9751 110.221H88.6431L89.2993 111.053C90.1196 111.069 90.7876 111.272 91.3032 111.663C91.8188 112.046 92.1978 112.542 92.4399 113.151C92.6821 113.76 92.8032 114.413 92.8032 115.108C92.8032 116.194 92.6001 117.108 92.1938 117.85C91.7954 118.585 91.2173 119.143 90.4595 119.526C89.7017 119.901 88.7876 120.089 87.7173 120.089ZM101.534 105.37L97.4087 120.089H94.4321L99.8462 103.026H101.698L101.534 105.37ZM104.827 120.089L100.69 105.37L100.491 103.026H102.377L107.815 120.089H104.827ZM104.897 113.749V116.139H96.9517V113.749H104.897Z" fill="black"></path></svg>