<svg xmlns="http://www.w3.org/2000/svg" width="169" height="169" viewBox="0 0 169 169" fill="none"><circle cx="84.5" cy="84.5" r="83.5" fill="black" stroke="black" stroke-width="2"></circle><path d="M31.1853 71.0863V96.776H24.5239V71.0863H20V65H35.5771V71.0863H31.1853Z" fill="white"></path><path d="M48.3636 96.776V82.5126L43.5133 84.6113V96.776H37.1394V65.0078H43.5133V78.696L48.3636 76.5973V65.0078H54.7375V96.776H48.3636Z" fill="white"></path><path d="M72.2811 71.0008H63.4898V78.9759H69.8637V84.9378H63.4898V87.1142C63.4898 87.7438 63.5442 88.319 63.6531 88.8398C63.7619 89.3606 64.0495 89.8425 64.5159 90.2778C65.0367 90.7675 65.5808 91.0162 66.156 91.0162C66.7623 91.0162 67.4152 91.0162 68.1303 91.0162H72.2811V96.8538L65.5419 96.8926C64.3915 96.8926 63.3033 96.6672 62.2772 96.2164C61.2512 95.7655 60.3495 95.1515 59.5878 94.3897C58.8183 93.6202 58.2197 92.7263 57.7767 91.7003C57.3414 90.6742 57.116 89.586 57.116 88.4356V70.9697C57.116 70.1458 57.2714 69.3762 57.5901 68.6456C57.901 67.9227 58.3363 67.2853 58.8882 66.7567C59.4323 66.2204 60.0697 65.8084 60.8004 65.5053C61.5233 65.2021 62.3006 65.0544 63.1245 65.0544L72.2889 65.0933V71.0008H72.2811Z" fill="white"></path><path d="M90.9829 73.0607C90.8741 73.5815 90.8197 74.1567 90.8197 74.7863V90.8997H95.67V77.0094H101.997V96.7761L90.5321 96.8616C89.7082 96.8616 88.9309 96.7139 88.1924 96.4108C87.454 96.1076 86.8088 95.6879 86.2569 95.1593C85.7051 94.623 85.2698 93.9934 84.9433 93.2705C84.6169 92.5476 84.4536 91.7703 84.4536 90.9464V73.4805C84.4536 72.3301 84.6713 71.2418 85.1143 70.2158C85.5496 69.1898 86.1559 68.2881 86.9254 67.5263C87.695 66.7568 88.5888 66.1505 89.6149 65.6997C90.6409 65.2489 91.7291 65.0234 92.8795 65.0234H102.044V70.8998H94.5663V70.9387C94.0766 70.9076 93.5947 70.9231 93.1283 70.9776C92.6619 71.032 92.2422 71.2496 91.8535 71.6383C91.3794 72.058 91.0918 72.5399 90.9829 73.0607Z" fill="white"></path><path d="M110.835 96.8537H104.384V65.0388H116.012C116.836 65.0388 117.605 65.1865 118.336 65.4741C119.067 65.7617 119.696 66.1659 120.248 66.6867C120.8 67.2075 121.228 67.8138 121.546 68.5133C121.857 69.2129 122.02 69.9747 122.02 70.7908V74.4519C122.02 75.9288 121.686 77.2735 121.018 78.4783C120.349 79.6831 119.448 80.6703 118.328 81.4398L122.355 96.7682H115.53L111.954 82.9167H110.843V96.8537H110.835ZM115.647 70.8841H110.796V77.0481C111.395 77.1025 112.055 77.1181 112.771 77.087C113.486 77.0559 114.1 76.7994 114.621 76.3097C115.087 75.8744 115.375 75.3924 115.483 74.8717C115.592 74.3509 115.647 73.7757 115.647 73.146V70.8841Z" fill="white"></path><path d="M123.785 96.776V65.0078H130.159V96.776H123.785Z" fill="white"></path><path d="M141.904 65.0854C143.054 65.0854 144.142 65.3109 145.168 65.7617C146.195 66.2125 147.096 66.8266 147.858 67.5884C148.627 68.3579 149.226 69.2518 149.669 70.2778C150.104 71.3039 150.33 72.3921 150.33 73.5425V91.0084C150.33 91.8323 150.174 92.5941 149.856 93.2859C149.537 93.9854 149.109 94.5917 148.558 95.1125C148.006 95.6333 147.368 96.0375 146.645 96.3251C145.922 96.6127 145.145 96.7604 144.321 96.7604H132.732V65.1165L141.904 65.0854ZM141.088 70.8996C140.373 70.8608 139.72 70.8686 139.113 70.923V90.9384H143.964V74.8716C143.964 74.242 143.909 73.6668 143.8 73.146C143.692 72.6253 143.404 72.1433 142.938 71.708C142.409 71.2106 141.795 70.9463 141.088 70.8996Z" fill="white"></path><path d="M68.4165 110.163V113.069C68.4165 114.272 68.2759 115.327 67.9946 116.233C67.7212 117.139 67.3228 117.897 66.7993 118.507C66.2837 119.108 65.6587 119.561 64.9243 119.866C64.1978 120.171 63.3853 120.323 62.4868 120.323C61.5962 120.323 60.7837 120.171 60.0493 119.866C59.3228 119.561 58.6938 119.108 58.1626 118.507C57.6392 117.897 57.2329 117.139 56.9438 116.233C56.6626 115.327 56.522 114.272 56.522 113.069V110.163C56.522 108.944 56.6626 107.878 56.9438 106.964C57.2251 106.042 57.6274 105.272 58.1509 104.655C58.6821 104.038 59.311 103.573 60.0376 103.26C60.772 102.948 61.5806 102.792 62.4634 102.792C63.3618 102.792 64.1743 102.948 64.9009 103.26C65.6353 103.573 66.2642 104.038 66.7876 104.655C67.311 105.272 67.7134 106.042 67.9946 106.964C68.2759 107.878 68.4165 108.944 68.4165 110.163ZM65.5923 113.069V110.139C65.5923 109.272 65.522 108.53 65.3813 107.913C65.2485 107.288 65.0493 106.78 64.7837 106.389C64.5181 105.991 64.1899 105.698 63.7993 105.51C63.4165 105.315 62.9712 105.218 62.4634 105.218C61.9712 105.218 61.5298 105.315 61.1392 105.51C60.7563 105.698 60.4282 105.991 60.1548 106.389C59.8892 106.78 59.686 107.288 59.5454 107.913C59.4126 108.53 59.3462 109.272 59.3462 110.139V113.069C59.3462 113.921 59.4165 114.655 59.5571 115.272C59.6978 115.882 59.9009 116.382 60.1665 116.772C60.4399 117.155 60.772 117.44 61.1626 117.628C61.5532 117.815 61.9946 117.909 62.4868 117.909C62.9868 117.909 63.4321 117.815 63.8228 117.628C64.2134 117.44 64.5376 117.155 64.7954 116.772C65.061 116.382 65.2603 115.882 65.3931 115.272C65.5259 114.655 65.5923 113.921 65.5923 113.069ZM76.936 113.76H73.3384V111.382H76.936C77.5298 111.382 78.0063 111.257 78.3657 111.007C78.7251 110.757 78.9868 110.413 79.1509 109.975C79.3228 109.538 79.4087 109.042 79.4087 108.487C79.4087 107.956 79.3228 107.456 79.1509 106.987C78.9868 106.518 78.7251 106.139 78.3657 105.85C78.0063 105.561 77.5298 105.417 76.936 105.417H74.1353V120.089H71.2993V103.026H76.936C78.0688 103.026 79.0298 103.26 79.8188 103.729C80.6157 104.198 81.2251 104.843 81.647 105.663C82.0688 106.475 82.2798 107.409 82.2798 108.464C82.2798 109.557 82.0688 110.503 81.647 111.3C81.2251 112.089 80.6157 112.698 79.8188 113.128C79.0298 113.55 78.0688 113.76 76.936 113.76ZM94.3032 117.71V120.089H86.897V117.71H94.3032ZM87.647 103.026V120.089H84.7993V103.026H87.647ZM93.3071 110.128V112.471H86.897V110.128H93.3071ZM94.2329 103.026V105.417H86.897V103.026H94.2329ZM102.143 112.401H98.6626L98.6509 110.221H101.733C102.209 110.221 102.616 110.128 102.952 109.94C103.288 109.753 103.542 109.479 103.713 109.12C103.893 108.76 103.983 108.327 103.983 107.819C103.983 107.257 103.901 106.8 103.737 106.448C103.581 106.089 103.338 105.827 103.01 105.663C102.682 105.499 102.26 105.417 101.745 105.417H99.5063V120.089H96.6587V103.026H101.745C102.542 103.026 103.252 103.116 103.877 103.296C104.51 103.475 105.045 103.757 105.483 104.139C105.92 104.514 106.252 104.995 106.479 105.581C106.713 106.159 106.831 106.846 106.831 107.643C106.831 108.339 106.682 108.979 106.385 109.565C106.088 110.143 105.647 110.62 105.061 110.995C104.483 111.362 103.764 111.581 102.905 111.651L102.143 112.401ZM102.038 120.089H97.7251L99.0376 117.71H102.038C102.545 117.71 102.963 117.6 103.292 117.382C103.62 117.163 103.866 116.858 104.03 116.468C104.194 116.077 104.276 115.62 104.276 115.096C104.276 114.55 104.206 114.073 104.065 113.667C103.924 113.26 103.698 112.948 103.385 112.729C103.073 112.51 102.659 112.401 102.143 112.401H99.272L99.2954 110.221H102.963L103.62 111.053C104.44 111.069 105.108 111.272 105.624 111.663C106.139 112.046 106.518 112.542 106.76 113.151C107.002 113.76 107.124 114.413 107.124 115.108C107.124 116.194 106.92 117.108 106.514 117.85C106.116 118.585 105.538 119.143 104.78 119.526C104.022 119.901 103.108 120.089 102.038 120.089ZM112.936 103.026V120.089H110.088V103.026H112.936Z" fill="white"></path></svg>