<svg xmlns="http://www.w3.org/2000/svg" width="169" height="169" viewBox="0 0 169 169" fill="none"><circle cx="84.5" cy="84.5" r="83.5" fill="black" stroke="black" stroke-width="2"></circle><path d="M31.1853 71.0863V96.776H24.5239V71.0863H20V65H35.5771V71.0863H31.1853Z" fill="white"></path><path d="M48.3636 96.776V82.5126L43.5133 84.6113V96.776H37.1394V65.0078H43.5133V78.696L48.3636 76.5973V65.0078H54.7375V96.776H48.3636Z" fill="white"></path><path d="M72.2811 71.0008H63.4898V78.9759H69.8637V84.9378H63.4898V87.1142C63.4898 87.7438 63.5442 88.319 63.6531 88.8398C63.7619 89.3606 64.0495 89.8425 64.5159 90.2778C65.0367 90.7675 65.5808 91.0162 66.156 91.0162C66.7623 91.0162 67.4152 91.0162 68.1303 91.0162H72.2811V96.8538L65.5419 96.8926C64.3915 96.8926 63.3033 96.6672 62.2772 96.2164C61.2512 95.7655 60.3495 95.1515 59.5878 94.3897C58.8183 93.6202 58.2197 92.7263 57.7767 91.7003C57.3414 90.6742 57.116 89.586 57.116 88.4356V70.9697C57.116 70.1458 57.2714 69.3762 57.5901 68.6456C57.901 67.9227 58.3363 67.2853 58.8882 66.7567C59.4323 66.2204 60.0697 65.8084 60.8004 65.5053C61.5233 65.2021 62.3006 65.0544 63.1245 65.0544L72.2889 65.0933V71.0008H72.2811Z" fill="white"></path><path d="M90.9829 73.0607C90.8741 73.5815 90.8197 74.1567 90.8197 74.7863V90.8997H95.67V77.0094H101.997V96.7761L90.5321 96.8616C89.7082 96.8616 88.9309 96.7139 88.1924 96.4108C87.454 96.1076 86.8088 95.6879 86.2569 95.1593C85.7051 94.623 85.2698 93.9934 84.9433 93.2705C84.6169 92.5476 84.4536 91.7703 84.4536 90.9464V73.4805C84.4536 72.3301 84.6713 71.2418 85.1143 70.2158C85.5496 69.1898 86.1559 68.2881 86.9254 67.5263C87.695 66.7568 88.5888 66.1505 89.6149 65.6997C90.6409 65.2489 91.7291 65.0234 92.8795 65.0234H102.044V70.8998H94.5663V70.9387C94.0766 70.9076 93.5947 70.9231 93.1283 70.9776C92.6619 71.032 92.2422 71.2496 91.8535 71.6383C91.3794 72.058 91.0918 72.5399 90.9829 73.0607Z" fill="white"></path><path d="M110.835 96.8537H104.384V65.0388H116.012C116.836 65.0388 117.605 65.1865 118.336 65.4741C119.067 65.7617 119.696 66.1659 120.248 66.6867C120.8 67.2075 121.228 67.8138 121.546 68.5133C121.857 69.2129 122.02 69.9747 122.02 70.7908V74.4519C122.02 75.9288 121.686 77.2735 121.018 78.4783C120.349 79.6831 119.448 80.6703 118.328 81.4398L122.355 96.7682H115.53L111.954 82.9167H110.843V96.8537H110.835ZM115.647 70.8841H110.796V77.0481C111.395 77.1025 112.055 77.1181 112.771 77.087C113.486 77.0559 114.1 76.7994 114.621 76.3097C115.087 75.8744 115.375 75.3924 115.483 74.8717C115.592 74.3509 115.647 73.7757 115.647 73.146V70.8841Z" fill="white"></path><path d="M123.785 96.776V65.0078H130.159V96.776H123.785Z" fill="white"></path><path d="M141.904 65.0854C143.054 65.0854 144.142 65.3109 145.168 65.7617C146.195 66.2125 147.096 66.8266 147.858 67.5884C148.627 68.3579 149.226 69.2518 149.669 70.2778C150.104 71.3039 150.33 72.3921 150.33 73.5425V91.0084C150.33 91.8323 150.174 92.5941 149.856 93.2859C149.537 93.9854 149.109 94.5917 148.558 95.1125C148.006 95.6333 147.368 96.0375 146.645 96.3251C145.922 96.6127 145.145 96.7604 144.321 96.7604H132.732V65.1165L141.904 65.0854ZM141.088 70.8996C140.373 70.8608 139.72 70.8686 139.113 70.923V90.9384H143.964V74.8716C143.964 74.242 143.909 73.6668 143.8 73.146C143.692 72.6253 143.404 72.1433 142.938 71.708C142.409 71.2106 141.795 70.9463 141.088 70.8996Z" fill="white"></path><path d="M65.1587 114.522H67.9946C67.9399 115.757 67.6899 116.807 67.2446 117.675C66.7993 118.534 66.1587 119.19 65.3228 119.643C64.4946 120.096 63.4829 120.323 62.2876 120.323C61.3813 120.323 60.5688 120.159 59.8501 119.831C59.1392 119.503 58.5337 119.03 58.0337 118.413C57.5337 117.788 57.1509 117.026 56.8853 116.128C56.6274 115.229 56.4985 114.21 56.4985 113.069V110.046C56.4985 108.905 56.6313 107.885 56.897 106.987C57.1704 106.089 57.561 105.327 58.0688 104.702C58.5767 104.077 59.1938 103.604 59.9204 103.284C60.6548 102.956 61.4829 102.792 62.4048 102.792C63.5845 102.792 64.5767 103.018 65.3813 103.471C66.186 103.925 66.8071 104.589 67.2446 105.464C67.6821 106.339 67.936 107.405 68.0063 108.663H65.1704C65.1313 107.811 65.0142 107.132 64.8188 106.624C64.6313 106.108 64.3423 105.737 63.9517 105.51C63.5688 105.284 63.0532 105.171 62.4048 105.171C61.8657 105.171 61.4009 105.272 61.0103 105.475C60.6274 105.678 60.311 105.983 60.061 106.389C59.8188 106.788 59.6353 107.292 59.5103 107.901C59.3931 108.503 59.3345 109.21 59.3345 110.022V113.069C59.3345 113.85 59.3853 114.542 59.4868 115.143C59.5884 115.745 59.7524 116.257 59.979 116.678C60.2056 117.093 60.5063 117.409 60.8813 117.628C61.2563 117.839 61.7251 117.944 62.2876 117.944C62.9595 117.944 63.4946 117.839 63.8931 117.628C64.2993 117.417 64.6001 117.061 64.7954 116.561C64.9907 116.061 65.1118 115.382 65.1587 114.522ZM76.3853 105.37L72.2603 120.089H69.2837L74.6978 103.026H76.5493L76.3853 105.37ZM79.6782 120.089L75.5415 105.37L75.3423 103.026H77.229L82.6665 120.089H79.6782ZM79.7485 113.749V116.139H71.8032V113.749H79.7485ZM87.4595 103.026V120.089H84.6118V103.026H87.4595ZM92.9907 110.468V112.858H86.8032V110.468H92.9907ZM93.7876 103.026V105.417H86.8032V103.026H93.7876ZM105.6 117.71V120.089H98.1938V117.71H105.6ZM98.9438 103.026V120.089H96.0962V103.026H98.9438ZM104.604 110.128V112.471H98.1938V110.128H104.604ZM105.53 103.026V105.417H98.1938V103.026H105.53Z" fill="white"></path></svg>